<?xml version="1.0" standalone="no"?><svg xmlns:xlink="http://www.w3.org/1999/xlink" xmlns="http://www.w3.org/2000/svg" viewBox="0 0 1400 700" preserveAspectRatio="xMaxYMax slice"><g transform="scale(1.8276762402088773)"><rect x="0" y="0" width="766" height="383" fill="#202040"/><g transform="translate(25.53,25.53) scale(0.6385) rotate(0)"><path d="M10 0H20L0 20V10L10 0Z" fill="#FF6363"/><path d="M20 10V20H10L20 10Z" fill="#FF6363"/></g><path d="M 280.87 38.3 A 12.77 12.77 0 0 1  293.64 25.53 L 280.87 38.3 A 12.77 12.77 0 0 0 293.64 25.53" fill="#FF6363"/><path d="M 536.2 25.53 A 12.77 12.77 0 0 1 548.97 38.3 L 536.2 38.3" fill="#FF6363"/><rect x="663.87" y="25.53" width="12.77" height="12.77" fill="#FF6363"/><polygon points="102.14,89.37 102.14,102.14 89.37,102.14" fill="#FFBD69"/><polygon points="293.64,89.37 293.64,102.14 280.87,102.14" fill="#FF6363"/><g transform="translate(727.7,89.37) scale(0.6385) rotate(0)"><path fill-rule="evenodd" clip-rule="evenodd" d="M10 20C15.5228 20 20 15.5228 20 10C20 4.47715 15.5228 0 10 0C4.47715 0 0 4.47715 0 10C0 15.5228 4.47715 20 10 20ZM10 17C13.866 17 17 13.866 17 10C17 6.13401 13.866 3 10 3C6.13401 3 3 6.13401 3 10C3 13.866 6.13401 17 10 17Z" fill="#FFBD69"/></g><g transform="translate(25.53,153.2) scale(0.6385) rotate(0)"><path fill-rule="evenodd" clip-rule="evenodd" d="M10 20C15.5228 20 20 15.5228 20 10C20 4.47715 15.5228 0 10 0C4.47715 0 0 4.47715 0 10C0 15.5228 4.47715 20 10 20ZM10 17C13.866 17 17 13.866 17 10C17 6.13401 13.866 3 10 3C6.13401 3 3 6.13401 3 10C3 13.866 6.13401 17 10 17Z" fill="#FFBD69"/></g><rect x="344.7" y="153.2" width="12.77" height="12.77" fill="#FFBD69"/><path d="M 600.03 165.97 A 12.77 12.77 0 0 0 612.8 153.2 L 600.03 153.2" fill="#FF6363"/><rect x="727.7" y="153.2" width="12.77" height="12.77" fill="#FFBD69"/><g transform="translate(25.53,217.03) scale(0.6385) rotate(0)"><path d="M10 0H20V10L10 20H0V10L10 0Z" fill="#FFBD69"/></g><path d="M 600.03 217.03 A 12.77 12.77 0 0 1 612.8 229.8 L 600.03 229.8" fill="#FFBD69"/><g transform="translate(663.87,217.03) scale(0.6385) rotate(0)"><path fill-rule="evenodd" clip-rule="evenodd" d="M10 20C15.5228 20 20 15.5228 20 10C20 4.47715 15.5228 0 10 0C4.47715 0 0 4.47715 0 10C0 15.5228 4.47715 20 10 20ZM10 17C13.866 17 17 13.866 17 10C17 6.13401 13.866 3 10 3C6.13401 3 3 6.13401 3 10C3 13.866 6.13401 17 10 17Z" fill="#FF6363"/></g><path d="M 727.7 229.8 A 12.77 12.77 0 0 1  740.47 217.03 L 740.47 229.8" fill="#FFBD69"/><g transform="translate(25.53,280.87) scale(0.6385) rotate(0)"><path fill-rule="evenodd" clip-rule="evenodd" d="M10 20C15.5228 20 20 15.5228 20 10C20 4.47715 15.5228 0 10 0C4.47715 0 0 4.47715 0 10C0 15.5228 4.47715 20 10 20ZM10 17C13.866 17 17 13.866 17 10C17 6.13401 13.866 3 10 3C6.13401 3 3 6.13401 3 10C3 13.866 6.13401 17 10 17Z" fill="#FFBD69"/></g><rect x="344.7" y="280.87" width="12.77" height="12.77" fill="#FFBD69"/><path d="M 408.53 280.87 A 12.77 12.77 0 0 0 421.29999999999995 293.64 L 421.29999999999995 280.87" fill="#FF6363"/><g transform="translate(472.37,280.87) scale(0.6385) rotate(0)"><path d="M10 0H20L0 20V10L10 0Z" fill="#FF6363"/><path d="M20 10V20H10L20 10Z" fill="#FF6363"/></g><g transform="translate(153.2,344.7) scale(0.6385) rotate(0)"><path d="M10 0L20 10L10 20L0 10L10 0Z" fill="#FF6363"/></g><g transform="translate(217.03,344.7) scale(0.6385) rotate(0)"><path fill-rule="evenodd" clip-rule="evenodd" d="M10 20C15.5228 20 20 15.5228 20 10C20 4.47715 15.5228 0 10 0C4.47715 0 0 4.47715 0 10C0 15.5228 4.47715 20 10 20ZM10 17C13.866 17 17 13.866 17 10C17 6.13401 13.866 3 10 3C6.13401 3 3 6.13401 3 10C3 13.866 6.13401 17 10 17Z" fill="#FFBD69"/></g><path d="M 408.53 357.46999999999997 A 12.77 12.77 0 0 1  421.29999999999995 344.7 L 408.53 357.46999999999997 A 12.77 12.77 0 0 0 421.29999999999995 344.7" fill="#FFBD69"/><g transform="translate(663.87,344.7) scale(0.6385) rotate(0)"><path d="M10 0H20V10L10 20H0V10L10 0Z" fill="#FFBD69"/></g><g transform="translate(727.7,344.7) scale(0.6385) rotate(0)"><path fill-rule="evenodd" clip-rule="evenodd" d="M10 20C15.5228 20 20 15.5228 20 10C20 4.47715 15.5228 0 10 0C4.47715 0 0 4.47715 0 10C0 15.5228 4.47715 20 10 20ZM10 17C13.866 17 17 13.866 17 10C17 6.13401 13.866 3 10 3C6.13401 3 3 6.13401 3 10C3 13.866 6.13401 17 10 17Z" fill="#FFBD69"/></g></g></svg>